# xmcd
#
# Track frame offsets: 
#        150
#        17979
#        32087
#        50245
#        70187
#        91289
#        106526
#        120574
#        142258
#        169505
#        184545
#        210872
#        225918
#
# Disc length: 3219 seconds
#
# Revision: 0
# Processed by: cddbd v1.5.2PL0 Copyright (c) Steve Scherf et al.
# Submitted via: ExactAudioCopy v0.99pb5
#
DISCID=a30c910d
DTITLE=Marie Louise - Dorthin
DYEAR=2010
DGENRE=Singer-Songwriter
TTITLE0=So schwer
TTITLE1=Warm ums Herz
TTITLE2=Kein Weg
TTITLE3=Drop by drop
TTITLE4=What can I do
TTITLE5=Kurze Beine
TTITLE6=Dorthin
TTITLE7=Alicia
TTITLE8=Märchenhaft
TTITLE9=An Dich
TTITLE10=Schreib es auf
TTITLE11=Sonne komm wieder
TTITLE12=Sei schön zu dir
EXTD=
EXTT0=
EXTT1=
EXTT2=
EXTT3=
EXTT4=
EXTT5=
EXTT6=
EXTT7=
EXTT8=
EXTT9=
EXTT10=
EXTT11=
EXTT12=
PLAYORDER=
